<svg xmlns="http://www.w3.org/2000/svg" viewBox="0 0 168 168" width="168" height="168"><g transform="translate(11 11) scale(0.3125)"><path d="M10,2 H54 A8,8 0 0 1 62,10 V54 A8,8 0 0 1 54,62 H2 V10 A8,8 0 0 1 10,2 Z" fill="none" stroke="#000" stroke-width="3.6"/><g transform="translate(1.25 3.1) scale(0.96)"><rect x="19.8" y="14.8" width="6.4" height="6.4" rx="3.2" fill="#000"/><rect x="38.8" y="14.8" width="6.4" height="6.4" rx="3.2" fill="#000"/><path d="M12,30 L20,45 L32.5,32 L45,45 L53,30" fill="none" stroke="#000" stroke-width="5" stroke-linecap="round" stroke-linejoin="round"/></g></g><g transform="translate(95 95) scale(0.3125)"><path d="M10,2 H54 A8,8 0 0 1 62,10 V54 A8,8 0 0 1 54,62 H2 V10 A8,8 0 0 1 10,2 Z" fill="none" stroke="#000" stroke-width="3.6"/><g transform="translate(1.25 3.1) scale(0.96)"><rect x="19.8" y="14.8" width="6.4" height="6.4" rx="3.2" fill="#000"/><rect x="38.8" y="14.8" width="6.4" height="6.4" rx="3.2" fill="#000"/><path d="M12,30 L20,45 L32.5,32 L45,45 L53,30" fill="none" stroke="#000" stroke-width="5" stroke-linecap="round" stroke-linejoin="round"/></g></g></svg>
